<mxfile host="app.diagrams.net" modified="2024-04-19T14:57:02.990Z" agent="Mozilla/5.0 (X11; Linux x86_64) AppleWebKit/537.36 (KHTML, like Gecko) Chrome/124.0.0.0 Safari/537.36" etag="vSLJx2DZvqBk2Yx6v82e" version="24.2.5" type="github">
  <diagram name="Page-1" id="UwRQU_uaPcspY-J5RMM1">
    <mxGraphModel dx="652" dy="919" grid="1" gridSize="10" guides="1" tooltips="1" connect="1" arrows="1" fold="1" page="1" pageScale="1" pageWidth="850" pageHeight="1100" math="0" shadow="0">
      <root>
        <mxCell id="0" />
        <mxCell id="1" parent="0" />
        <mxCell id="ltoQYKdn1Swx7HzMKFB0-1" value="1_1" style="ellipse;whiteSpace=wrap;html=1;aspect=fixed;fillColor=#d5e8d4;strokeColor=#82b366;" vertex="1" parent="1">
          <mxGeometry x="80" y="20" width="40" height="40" as="geometry" />
        </mxCell>
        <mxCell id="ltoQYKdn1Swx7HzMKFB0-2" value="2_1" style="ellipse;whiteSpace=wrap;html=1;aspect=fixed;fillColor=#d5e8d4;strokeColor=#82b366;" vertex="1" parent="1">
          <mxGeometry x="250" y="140" width="40" height="40" as="geometry" />
        </mxCell>
        <mxCell id="ltoQYKdn1Swx7HzMKFB0-3" value="3_1" style="ellipse;whiteSpace=wrap;html=1;aspect=fixed;fillColor=#d5e8d4;strokeColor=#82b366;" vertex="1" parent="1">
          <mxGeometry x="310" y="140" width="40" height="40" as="geometry" />
        </mxCell>
        <mxCell id="ltoQYKdn1Swx7HzMKFB0-4" value="4_1" style="ellipse;whiteSpace=wrap;html=1;aspect=fixed;fillColor=#d5e8d4;strokeColor=#82b366;" vertex="1" parent="1">
          <mxGeometry x="480" y="20" width="40" height="40" as="geometry" />
        </mxCell>
        <mxCell id="ltoQYKdn1Swx7HzMKFB0-5" value="" style="endArrow=none;html=1;rounded=0;" edge="1" parent="1" target="ltoQYKdn1Swx7HzMKFB0-1">
          <mxGeometry width="50" height="50" relative="1" as="geometry">
            <mxPoint x="20" y="40" as="sourcePoint" />
            <mxPoint as="targetPoint" />
          </mxGeometry>
        </mxCell>
        <mxCell id="ltoQYKdn1Swx7HzMKFB0-6" value="" style="endArrow=none;html=1;rounded=0;" edge="1" parent="1" target="ltoQYKdn1Swx7HzMKFB0-18">
          <mxGeometry width="50" height="50" relative="1" as="geometry">
            <mxPoint x="20" y="160" as="sourcePoint" />
            <mxPoint x="180" y="160" as="targetPoint" />
          </mxGeometry>
        </mxCell>
        <mxCell id="ltoQYKdn1Swx7HzMKFB0-7" value="" style="endArrow=none;html=1;rounded=0;" edge="1" parent="1" source="ltoQYKdn1Swx7HzMKFB0-17" target="ltoQYKdn1Swx7HzMKFB0-18">
          <mxGeometry width="50" height="50" relative="1" as="geometry">
            <mxPoint x="170" y="80" as="sourcePoint" />
            <mxPoint x="200" y="120" as="targetPoint" />
          </mxGeometry>
        </mxCell>
        <mxCell id="ltoQYKdn1Swx7HzMKFB0-8" value="" style="endArrow=none;html=1;rounded=0;" edge="1" parent="1" source="ltoQYKdn1Swx7HzMKFB0-2" target="ltoQYKdn1Swx7HzMKFB0-3">
          <mxGeometry width="50" height="50" relative="1" as="geometry">
            <mxPoint x="280" y="320" as="sourcePoint" />
            <mxPoint x="330" y="270" as="targetPoint" />
          </mxGeometry>
        </mxCell>
        <mxCell id="ltoQYKdn1Swx7HzMKFB0-9" value="" style="endArrow=none;html=1;rounded=0;" edge="1" parent="1" source="ltoQYKdn1Swx7HzMKFB0-19" target="ltoQYKdn1Swx7HzMKFB0-20">
          <mxGeometry width="50" height="50" relative="1" as="geometry">
            <mxPoint x="410" y="130" as="sourcePoint" />
            <mxPoint x="450" y="80" as="targetPoint" />
          </mxGeometry>
        </mxCell>
        <mxCell id="ltoQYKdn1Swx7HzMKFB0-10" value="" style="endArrow=none;html=1;rounded=0;" edge="1" parent="1" source="ltoQYKdn1Swx7HzMKFB0-17" target="ltoQYKdn1Swx7HzMKFB0-20">
          <mxGeometry width="50" height="50" relative="1" as="geometry">
            <mxPoint x="190" y="40" as="sourcePoint" />
            <mxPoint x="360" y="40" as="targetPoint" />
          </mxGeometry>
        </mxCell>
        <mxCell id="ltoQYKdn1Swx7HzMKFB0-11" value="" style="endArrow=none;html=1;rounded=0;" edge="1" parent="1" source="ltoQYKdn1Swx7HzMKFB0-4">
          <mxGeometry width="50" height="50" relative="1" as="geometry">
            <mxPoint x="560" y="40" as="sourcePoint" />
            <mxPoint x="580" y="40" as="targetPoint" />
          </mxGeometry>
        </mxCell>
        <mxCell id="ltoQYKdn1Swx7HzMKFB0-12" value="" style="endArrow=none;html=1;rounded=0;" edge="1" parent="1" source="ltoQYKdn1Swx7HzMKFB0-19">
          <mxGeometry width="50" height="50" relative="1" as="geometry">
            <mxPoint x="410" y="160" as="sourcePoint" />
            <mxPoint x="580" y="160" as="targetPoint" />
          </mxGeometry>
        </mxCell>
        <mxCell id="ltoQYKdn1Swx7HzMKFB0-13" value="104" style="text;html=1;align=center;verticalAlign=middle;whiteSpace=wrap;rounded=0;" vertex="1" parent="1">
          <mxGeometry x="30" y="10" width="60" height="30" as="geometry" />
        </mxCell>
        <mxCell id="ltoQYKdn1Swx7HzMKFB0-14" value="204" style="text;html=1;align=center;verticalAlign=middle;whiteSpace=wrap;rounded=0;" vertex="1" parent="1">
          <mxGeometry x="30" y="130" width="60" height="30" as="geometry" />
        </mxCell>
        <mxCell id="ltoQYKdn1Swx7HzMKFB0-15" value="" style="ellipse;whiteSpace=wrap;html=1;aspect=fixed;" vertex="1" parent="1">
          <mxGeometry x="295" y="190" width="10" height="10" as="geometry" />
        </mxCell>
        <mxCell id="ltoQYKdn1Swx7HzMKFB0-16" value="Leitstelle" style="rounded=0;whiteSpace=wrap;html=1;" vertex="1" parent="1">
          <mxGeometry x="260" y="203" width="80" height="20" as="geometry" />
        </mxCell>
        <mxCell id="ltoQYKdn1Swx7HzMKFB0-17" value="1_2" style="ellipse;whiteSpace=wrap;html=1;aspect=fixed;fillColor=#d5e8d4;strokeColor=#82b366;" vertex="1" parent="1">
          <mxGeometry x="140" y="20" width="40" height="40" as="geometry" />
        </mxCell>
        <mxCell id="ltoQYKdn1Swx7HzMKFB0-18" value="2_2" style="ellipse;whiteSpace=wrap;html=1;aspect=fixed;fillColor=#d5e8d4;strokeColor=#82b366;" vertex="1" parent="1">
          <mxGeometry x="190" y="140" width="40" height="40" as="geometry" />
        </mxCell>
        <mxCell id="ltoQYKdn1Swx7HzMKFB0-19" value="3_2" style="ellipse;whiteSpace=wrap;html=1;aspect=fixed;fillColor=#d5e8d4;strokeColor=#82b366;" vertex="1" parent="1">
          <mxGeometry x="370" y="140" width="40" height="40" as="geometry" />
        </mxCell>
        <mxCell id="ltoQYKdn1Swx7HzMKFB0-20" value="4_2" style="ellipse;whiteSpace=wrap;html=1;aspect=fixed;fillColor=#d5e8d4;strokeColor=#82b366;" vertex="1" parent="1">
          <mxGeometry x="418" y="20" width="40" height="40" as="geometry" />
        </mxCell>
        <mxCell id="ltoQYKdn1Swx7HzMKFB0-22" value="" style="endArrow=none;html=1;rounded=0;fillColor=#d5e8d4;strokeColor=#00CC00;" edge="1" parent="1" source="ltoQYKdn1Swx7HzMKFB0-1" target="ltoQYKdn1Swx7HzMKFB0-17">
          <mxGeometry width="50" height="50" relative="1" as="geometry">
            <mxPoint x="120" y="130" as="sourcePoint" />
            <mxPoint x="170" y="80" as="targetPoint" />
          </mxGeometry>
        </mxCell>
        <mxCell id="ltoQYKdn1Swx7HzMKFB0-23" value="" style="endArrow=none;html=1;rounded=0;fillColor=#d5e8d4;strokeColor=#00CC00;" edge="1" parent="1" source="ltoQYKdn1Swx7HzMKFB0-18" target="ltoQYKdn1Swx7HzMKFB0-2">
          <mxGeometry width="50" height="50" relative="1" as="geometry">
            <mxPoint x="230" y="130" as="sourcePoint" />
            <mxPoint x="270" y="80" as="targetPoint" />
          </mxGeometry>
        </mxCell>
        <mxCell id="ltoQYKdn1Swx7HzMKFB0-24" value="" style="endArrow=none;html=1;rounded=0;fillColor=#d5e8d4;strokeColor=#00CC00;" edge="1" parent="1" source="ltoQYKdn1Swx7HzMKFB0-3" target="ltoQYKdn1Swx7HzMKFB0-19">
          <mxGeometry width="50" height="50" relative="1" as="geometry">
            <mxPoint x="240" y="140" as="sourcePoint" />
            <mxPoint x="280" y="90" as="targetPoint" />
          </mxGeometry>
        </mxCell>
        <mxCell id="ltoQYKdn1Swx7HzMKFB0-25" value="" style="endArrow=none;html=1;rounded=0;fillColor=#d5e8d4;strokeColor=#00CC00;" edge="1" parent="1" source="ltoQYKdn1Swx7HzMKFB0-20" target="ltoQYKdn1Swx7HzMKFB0-4">
          <mxGeometry width="50" height="50" relative="1" as="geometry">
            <mxPoint x="430" y="100" as="sourcePoint" />
            <mxPoint x="470" y="50" as="targetPoint" />
          </mxGeometry>
        </mxCell>
        <mxCell id="ltoQYKdn1Swx7HzMKFB0-26" value="" style="endArrow=none;html=1;rounded=0;fillColor=#d5e8d4;strokeColor=#00CC00;" edge="1" parent="1">
          <mxGeometry width="50" height="50" relative="1" as="geometry">
            <mxPoint x="35" y="212.57999999999998" as="sourcePoint" />
            <mxPoint x="85" y="212.57999999999998" as="targetPoint" />
          </mxGeometry>
        </mxCell>
        <mxCell id="ltoQYKdn1Swx7HzMKFB0-27" value="Doppelknoten Kante" style="text;html=1;align=center;verticalAlign=middle;whiteSpace=wrap;rounded=0;" vertex="1" parent="1">
          <mxGeometry x="80" y="198" width="140" height="30" as="geometry" />
        </mxCell>
      </root>
    </mxGraphModel>
  </diagram>
</mxfile>
